name Run_300 01_newCOP3_v24.mot
datacolumns 19
datarows 72
range 4.064583 4.138542
DataType=double
version=3
OpenSimVersion=4.3-2021-08-27-4bc7ad9
endheader
time	R_ground_force_vx	R_ground_force_vy	R_ground_force_vz	R_ground_force_px	R_ground_force_py	R_ground_force_pz	L_ground_force_vx	L_ground_force_vy	L_ground_force_vz	L_ground_force_px	L_ground_force_py	L_ground_force_pz	R_ground_torque_x	R_ground_torque_y	R_ground_torque_z	L_ground_torque_x	L_ground_torque_y	L_ground_torque_z
4.064583	0	0	0	0	0	0	122.164795	1180.055908	-6.479066	0.78837	0	-0.31962	0	0	0	0	-0.232938	0
4.065625	0	0	0	0	0	0	125.372124	1164.453247	-7.928171	0.785876	0	-0.319638	0	0	0	-0	0.219182	-0
4.066667	0	0	0	0	0	0	128.507278	1148.702148	-9.374475	0.783376	0	-0.319649	0	0	0	-0	0.6660199999999999	-0
4.067708	0	0	0	0	0	0	131.559372	1132.814209	-10.809591	0.780872	0	-0.319651	0	0	0	-0	1.102282	-0
4.06875	0	0	0	0	0	0	134.517792	1116.800903	-12.225567	0.7783679999999999	0	-0.319643	0	0	0	-0	1.522902	-0
4.069792	0	0	0	0	0	0	137.372375	1100.673096	-13.615019	0.775865	0	-0.319624	0	0	0	-0	1.923151	-0
4.070833	0	0	0	0	0	0	140.113708	1084.441162	-14.971258	0.773367	0	-0.319591	0	0	0	-0	2.298741	-0
4.071875	0	0	0	0	0	0	142.733246	1068.114624	-16.288382	0.770877	0	-0.319545	0	0	0	-0	2.645916	-0
4.072917	0	0	0	0	0	0	145.223511	1051.701904	-17.561354	0.768396	0	-0.319485	0	0	0	-0	2.961527	-0
4.073958	0	0	0	0	0	0	147.57814	1035.210571	-18.786053	0.7659280000000001	0	-0.31941	0	0	0	-0	3.243091	-0
4.075	0	0	0	0	0	0	149.791962	1018.647217	-19.959301	0.763473	0	-0.31932	0	0	0	-0	3.48883	-0
4.076042	0	0	0	0	0	0	151.860947	1002.017151	-21.078865	0.761035	0	-0.319215	0	0	0	-0	3.697694	-0
4.077083	0	0	0	0	0	0	153.782181	985.3247679999999	-22.14344	0.758613	0	-0.319097	0	0	0	-0	3.869365	-0
4.078125	0	0	0	0	0	0	155.553726	968.573425	-23.152592	0.756209	0	-0.318965	0	0	0	-0	4.004238	-0
4.079167	0	0	0	0	0	0	157.1745	951.765747	-24.106705	0.753822	0	-0.318821	0	0	0	-0	4.103394	-0
4.080208	0	0	0	0	0	0	158.644043	934.903503	-25.006887	0.751453	0	-0.318667	0	0	0	-0	4.168544	-0
4.08125	0	0	0	0	0	0	159.962494	917.987976	-25.854876	0.749101	0	-0.318503	0	0	0	-0	4.201966	-0
4.082292	0	0	0	0	0	0	161.130219	901.020203	-26.652918	0.746765	0	-0.318333	0	0	0	-0	4.206431	-0
4.083333	0	0	0	0	0	0	162.147842	884.001099	-27.403656	0.744445	0	-0.318158	0	0	0	-0	4.185111	-0
4.084375	0	0	0	0	0	0	163.01593	866.9315800000001	-28.109991	0.742139	0	-0.317981	0	0	0	-0	4.141485	-0
4.085417	0	0	0	0	0	0	163.734985	849.813171	-28.77496	0.739845	0	-0.317803	0	0	0	-0	4.079236	-0
4.086458	0	0	0	0	0	0	164.305313	832.647827	-29.401606	0.737563	0	-0.317627	0	0	0	-0	4.002152	-0
4.0875	0	0	0	0	0	0	164.726974	815.438354	-29.992853	0.735291	0	-0.317457	0	0	0	-0	3.914019	-0
4.088542	0	0	0	0	0	0	164.999771	798.188599	-30.551401	0.733027	0	-0.317292	0	0	0	-0	3.818523	-0
4.089583	0	0	0	0	0	0	165.123245	780.903503	-31.079615	0.7307709999999999	0	-0.317137	0	0	0	-0	3.719153	-0
4.090625	0	0	0	0	0	0	165.09668	763.589294	-31.579445	0.728521	0	-0.316993	0	0	0	-0	3.61912	-0
4.091667	0	0	0	0	0	0	164.919235	746.253662	-32.052353	0.726276	0	-0.31686	0	0	0	-0	3.521278	-0
4.092708	0	0	0	0	0	0	164.589951	728.905579	-32.499264	0.724035	0	-0.316742	0	0	0	-0	3.428059	-0
4.09375	0	0	0	0	0	0	164.107895	711.555359	-32.920528	0.7217980000000001	0	-0.316639	0	0	0	-0	3.341424	-0
4.094792	0	0	0	0	0	0	163.472168	694.214783	-33.315918	0.719565	0	-0.31655	0	0	0	-0	3.26283	-0
4.095833	0	0	0	0	0	0	162.682098	676.896851	-33.684616	0.717334	0	-0.316478	0	0	0	-0	3.193199	-0
4.096875	0	0	0	0	0	0	161.737259	659.61554	-34.025261	0.715108	0	-0.31642	0	0	0	-0	3.132924	-0
4.097917	0	0	0	0	0	0	160.637558	642.3857420000001	-34.335976	0.712885	0	-0.316378	0	0	0	-0	3.081866	-0
4.098958	0	0	0	0	0	0	159.383347	625.223206	-34.614441	0.710666	0	-0.316349	0	0	0	-0	3.039386	-0
4.1	0	0	0	0	0	0	157.97551	608.14386	-34.857944	0.708454	0	-0.316333	0	0	0	-0	3.004375	-0
4.101042	0	0	0	0	0	0	156.415421	591.16394	-35.063492	0.70625	0	-0.316327	0	0	0	-0	2.975303	-0
4.102083	0	0	0	0	0	0	154.705109	574.299622	-35.227886	0.704055	0	-0.31633	0	0	0	-0	2.950279	-0
4.103125	0	0	0	0	0	0	152.84726	557.566589	-35.347824	0.701871	0	-0.316339	0	0	0	-0	2.927117	-0
4.104167	0	0	0	0	0	0	150.845215	540.980042	-35.420006	0.699702	0	-0.316353	0	0	0	-0	2.903406	-0
4.105208	0	0	0	0	0	0	148.703064	524.554382	-35.441242	0.697549	0	-0.316368	0	0	0	-0	2.876588	-0
4.10625	0	0	0	0	0	0	146.425583	508.30304	-35.408539	0.695414	0	-0.316383	0	0	0	-0	2.84404	-0
4.107292	0	0	0	0	0	0	144.01828	492.238403	-35.31921	0.693302	0	-0.316395	0	0	0	-0	2.803151	-0
4.108333	0	0	0	0	0	0	141.487411	476.371765	-35.170944	0.691214	0	-0.316402	0	0	0	-0	2.751395	-0
4.109375	0	0	0	0	0	0	138.83989	460.713287	-34.961906	0.689152	0	-0.316401	0	0	0	-0	2.686411	-0
4.110417	0	0	0	0	0	0	136.083328	445.272064	-34.690777	0.68712	0	-0.316391	0	0	0	-0	2.606061	-0
4.111458	0	0	0	0	0	0	133.225998	430.056213	-34.356827	0.685119	0	-0.316369	0	0	0	-0	2.508496	-0
4.1125	0	0	0	0	0	0	130.276703	415.072876	-33.959938	0.68315	0	-0.316335	0	0	0	-0	2.392199	-0
4.113542	0	0	0	0	0	0	127.244873	400.328583	-33.500629	0.681214	0	-0.316288	0	0	0	-0	2.25603	-0
4.114583	0	0	0	0	0	0	124.140358	385.829071	-32.980064	0.6793129999999999	0	-0.316226	0	0	0	-0	2.099251	-0
4.115625	0	0	0	0	0	0	120.973412	371.579681	-32.400043	0.677447	0	-0.316148	0	0	0	-0	1.921546	-0
4.116667	0	0	0	0	0	0	117.754601	357.585205	-31.762981	0.675614	0	-0.316056	0	0	0	-0	1.723026	-0
4.117708	0	0	0	0	0	0	114.494682	343.85022	-31.071861	0.6738150000000001	0	-0.315948	0	0	0	-0	1.504224	-0
4.11875	0	0	0	0	0	0	111.204483	330.378906	-30.330193	0.6720469999999999	0	-0.315824	0	0	0	-0	1.26608	-0
4.119792	0	0	0	0	0	0	107.894737	317.175293	-29.541948	0.670309	0	-0.315686	0	0	0	-0	1.009916	-0
4.120833	0	0	0	0	0	0	104.575974	304.243134	-28.711502	0.668597	0	-0.315535	0	0	0	-0	0.737401	-0
4.121875	0	0	0	0	0	0	101.258316	291.585876	-27.843536	0.666909	0	-0.31537	0	0	0	-0	0.450511	-0
4.122917	0	0	0	0	0	0	97.951363	279.206757	-26.942978	0.665243	0	-0.315194	0	0	0	-0	0.151477	-0
4.123958	0	0	0	0	0	0	94.664001	267.108734	-26.014904	0.663593	0	-0.315009	0	0	0	0	-0.15726	0
4.125	0	0	0	0	0	0	91.40432	255.294418	-25.064463	0.661958	0	-0.314815	0	0	0	0	-0.473115	0
4.126042	0	0	0	0	0	0	88.179489	243.766159	-24.09679	0.660334	0	-0.314614	0	0	0	0	-0.7934059999999999	0
4.127083	0	0	0	0	0	0	84.99569700000001	232.52597	-23.116934	0.658717	0	-0.31441	0	0	0	0	-1.115418	0
4.128125	0	0	0	0	0	0	81.85813899999999	221.575531	-22.129774	0.657107	0	-0.314202	0	0	0	0	-1.436457	0
4.129167	0	0	0	0	0	0	78.771057	210.916336	-21.139965	0.655502	0	-0.313995	0	0	0	0	-1.7539	0
4.130208	0	0	0	0	0	0	75.737793	200.549576	-20.151876	0.653901	0	-0.313788	0	0	0	0	-2.065247	0
4.13125	0	0	0	0	0	0	72.760902	190.476334	-19.169546	0.6523060000000001	0	-0.313584	0	0	0	0	-2.368161	0
4.132292	0	0	0	0	0	0	69.842316	180.697556	-18.196638	0.65072	0	-0.313383	0	0	0	0	-2.660506	0
4.133333	0	0	0	0	0	0	66.983459	171.214157	-17.236429	0.649147	0	-0.313185	0	0	0	0	-2.940374	0
4.134375	0	0	0	0	0	0	64.185455	162.027023	-16.291782	0.647593	0	-0.312991	0	0	0	0	-3.206113	0
4.135417	0	0	0	0	0	0	61.449238	153.137146	-15.365147	0.6460669999999999	0	-0.312797	0	0	0	0	-3.456334	0
4.136458	0	0	0	0	0	0	58.7757	144.545532	-14.458568	0.64458	0	-0.312601	0	0	0	0	-3.689923	0
4.1375	0	0	0	0	0	0	56.165775	136.253265	-13.573698	0.643145	0	-0.312399	0	0	0	0	-3.906036	0
4.138542	0	0	0	0	0	0	53.620495	128.261505	-12.711825	0.641777	0	-0.312183	0	0	0	0	-4.104098	0
